%TF.GenerationSoftware,KiCad,Pcbnew,9.0.7*%
%TF.CreationDate,2026-04-02T11:02:13+02:00*%
%TF.ProjectId,attiny45_led_button,61747469-6e79-4343-955f-6c65645f6275,rev?*%
%TF.SameCoordinates,Original*%
%TF.FileFunction,Copper,L1,Top*%
%TF.FilePolarity,Positive*%
%FSLAX46Y46*%
G04 Gerber Fmt 4.6, Leading zero omitted, Abs format (unit mm)*
G04 Created by KiCad (PCBNEW 9.0.7) date 2026-04-02 11:02:13*
%MOMM*%
%LPD*%
G01*
G04 APERTURE LIST*
G04 Aperture macros list*
%AMRoundRect*
0 Rectangle with rounded corners*
0 $1 Rounding radius*
0 $2 $3 $4 $5 $6 $7 $8 $9 X,Y pos of 4 corners*
0 Add a 4 corners polygon primitive as box body*
4,1,4,$2,$3,$4,$5,$6,$7,$8,$9,$2,$3,0*
0 Add four circle primitives for the rounded corners*
1,1,$1+$1,$2,$3*
1,1,$1+$1,$4,$5*
1,1,$1+$1,$6,$7*
1,1,$1+$1,$8,$9*
0 Add four rect primitives between the rounded corners*
20,1,$1+$1,$2,$3,$4,$5,0*
20,1,$1+$1,$4,$5,$6,$7,0*
20,1,$1+$1,$6,$7,$8,$9,0*
20,1,$1+$1,$8,$9,$2,$3,0*%
G04 Aperture macros list end*
%TA.AperFunction,ComponentPad*%
%ADD10C,1.600000*%
%TD*%
%TA.AperFunction,ComponentPad*%
%ADD11R,1.800000X1.800000*%
%TD*%
%TA.AperFunction,ComponentPad*%
%ADD12C,1.800000*%
%TD*%
%TA.AperFunction,ComponentPad*%
%ADD13C,1.700000*%
%TD*%
%TA.AperFunction,ComponentPad*%
%ADD14R,1.350000X1.350000*%
%TD*%
%TA.AperFunction,ComponentPad*%
%ADD15C,1.350000*%
%TD*%
%TA.AperFunction,ComponentPad*%
%ADD16RoundRect,0.250000X-0.550000X-0.550000X0.550000X-0.550000X0.550000X0.550000X-0.550000X0.550000X0*%
%TD*%
%TA.AperFunction,Conductor*%
%ADD17C,0.200000*%
%TD*%
G04 APERTURE END LIST*
D10*
%TO.P,R1,1*%
%TO.N,Net-(J1-Pin_4)*%
X150880000Y-68000000D03*
%TO.P,R1,2*%
%TO.N,Net-(D1-A)*%
X158500000Y-68000000D03*
%TD*%
D11*
%TO.P,D1,1,K*%
%TO.N,GND*%
X156730000Y-83000000D03*
D12*
%TO.P,D1,2,A*%
%TO.N,Net-(D1-A)*%
X159270000Y-83000000D03*
%TD*%
D13*
%TO.P,SW1,1,1*%
%TO.N,Net-(J1-Pin_1)*%
X129770000Y-85810000D03*
X136270000Y-85810000D03*
%TO.P,SW1,2,2*%
%TO.N,GND*%
X129770000Y-90310000D03*
X136270000Y-90310000D03*
%TD*%
D14*
%TO.P,J1,1,Pin_1*%
%TO.N,Net-(J1-Pin_1)*%
X123000000Y-71500000D03*
D15*
%TO.P,J1,2,Pin_2*%
%TO.N,+5V*%
X125000000Y-71500000D03*
%TO.P,J1,3,Pin_3*%
%TO.N,Net-(J1-Pin_3)*%
X123000000Y-73500000D03*
%TO.P,J1,4,Pin_4*%
%TO.N,Net-(J1-Pin_4)*%
X125000000Y-73500000D03*
%TO.P,J1,5,Pin_5*%
X123000000Y-75500000D03*
%TO.P,J1,6,Pin_6*%
%TO.N,GND*%
X125000000Y-75500000D03*
%TD*%
D16*
%TO.P,U1,1,~{RESET}/PB5*%
%TO.N,Net-(J1-Pin_4)*%
X134070000Y-68210000D03*
D10*
%TO.P,U1,2,XTAL1/PB3*%
%TO.N,unconnected-(U1-XTAL1{slash}PB3-Pad2)*%
X134070000Y-70750000D03*
%TO.P,U1,3,NC*%
%TO.N,unconnected-(U1-NC-Pad3)*%
X134070000Y-73290000D03*
%TO.P,U1,4,NC*%
%TO.N,unconnected-(U1-NC-Pad4)*%
X134070000Y-75830000D03*
%TO.P,U1,5,XTAL2/PB4*%
%TO.N,unconnected-(U1-XTAL2{slash}PB4-Pad5)*%
X141690000Y-75830000D03*
%TO.P,U1,6,NC*%
%TO.N,unconnected-(U1-NC-Pad6)*%
X141690000Y-73290000D03*
%TO.P,U1,7,NC*%
%TO.N,unconnected-(U1-NC-Pad7)*%
X141690000Y-70750000D03*
%TO.P,U1,8,GND*%
%TO.N,GND*%
X141690000Y-68210000D03*
%TD*%
D17*
%TO.N,Net-(D1-A)*%
X161000000Y-83000000D02*
X163000000Y-81000000D01*
X161000000Y-68000000D02*
X158500000Y-68000000D01*
X163000000Y-70000000D02*
X161000000Y-68000000D01*
X159270000Y-83000000D02*
X161000000Y-83000000D01*
X163000000Y-81000000D02*
X163000000Y-70000000D01*
%TO.N,GND*%
X150500000Y-87000000D02*
X156000000Y-87000000D01*
X156730000Y-86270000D02*
X156730000Y-83000000D01*
X125000000Y-77500000D02*
X125000000Y-75500000D01*
X126500000Y-77000000D02*
X144500000Y-77000000D01*
X129770000Y-94000000D02*
X128000000Y-94000000D01*
X125000000Y-75500000D02*
X126500000Y-77000000D01*
X130000000Y-95000000D02*
X131500000Y-93500000D01*
X147000000Y-73520000D02*
X141690000Y-68210000D01*
X126000000Y-77500000D02*
X126500000Y-77000000D01*
X118500000Y-84500000D02*
X118500000Y-77500000D01*
X144500000Y-77000000D02*
X147000000Y-74500000D01*
X131500000Y-93500000D02*
X137000000Y-93500000D01*
X156000000Y-87000000D02*
X156730000Y-86270000D01*
X147000000Y-74500000D02*
X147000000Y-73520000D01*
X148690000Y-90310000D02*
X150000000Y-89000000D01*
X150000000Y-89000000D02*
X150000000Y-87500000D01*
X136270000Y-92770000D02*
X136270000Y-90310000D01*
X129770000Y-94000000D02*
X129770000Y-94770000D01*
X136270000Y-90310000D02*
X148690000Y-90310000D01*
X137000000Y-93500000D02*
X136270000Y-92770000D01*
X118500000Y-77500000D02*
X125000000Y-77500000D01*
X129770000Y-94770000D02*
X130000000Y-95000000D01*
X128000000Y-94000000D02*
X118500000Y-84500000D01*
X129770000Y-90310000D02*
X129770000Y-94000000D01*
%TO.N,Net-(J1-Pin_4)*%
X146000000Y-65000000D02*
X144000000Y-63000000D01*
X129000000Y-71500000D02*
X131500000Y-69000000D01*
X150880000Y-68000000D02*
X146000000Y-68000000D01*
X123000000Y-75500000D02*
X123976000Y-74524000D01*
X146000000Y-68000000D02*
X146000000Y-65000000D01*
X128500000Y-73500000D02*
X129000000Y-73000000D01*
X144000000Y-63000000D02*
X131000000Y-63000000D01*
X131500000Y-69000000D02*
X132290000Y-68210000D01*
X131000000Y-68500000D02*
X131500000Y-69000000D01*
X146000000Y-68500000D02*
X146000000Y-68000000D01*
X129000000Y-73000000D02*
X129000000Y-71500000D01*
X125000000Y-73500000D02*
X128500000Y-73500000D01*
X131000000Y-63000000D02*
X131000000Y-68500000D01*
X132290000Y-68210000D02*
X134070000Y-68210000D01*
%TO.N,Net-(J1-Pin_1)*%
X131000000Y-83000000D02*
X137500000Y-83000000D01*
X129770000Y-85810000D02*
X129770000Y-84230000D01*
X142146050Y-67109000D02*
X141233950Y-67109000D01*
X138817100Y-83250000D02*
X147401000Y-74666100D01*
X147401000Y-74666100D02*
X147401000Y-72363950D01*
X137500000Y-84580000D02*
X136270000Y-85810000D01*
X141233950Y-67109000D02*
X140589000Y-67753950D01*
X140589000Y-67753950D02*
X140589000Y-68666050D01*
X140589000Y-68666050D02*
X134731050Y-74524000D01*
X134731050Y-74524000D02*
X124595727Y-74524000D01*
X130750000Y-83250000D02*
X138817100Y-83250000D01*
X130750000Y-83250000D02*
X131000000Y-83000000D01*
X147401000Y-72363950D02*
X142146050Y-67109000D01*
X129770000Y-84230000D02*
X130750000Y-83250000D01*
X124595727Y-74524000D02*
X123976000Y-73904273D01*
X123976000Y-72476000D02*
X123000000Y-71500000D01*
X137500000Y-83000000D02*
X137500000Y-84580000D01*
X123976000Y-73904273D02*
X123976000Y-72476000D01*
%TD*%
M02*
